<mxfile host="65bd71144e">
    <diagram id="PsttditA15RC22XOiYh5" name="Page-1">
        <mxGraphModel dx="1135" dy="1073" grid="1" gridSize="10" guides="1" tooltips="1" connect="1" arrows="1" fold="1" page="1" pageScale="1" pageWidth="850" pageHeight="1100" math="0" shadow="0">
            <root>
                <mxCell id="0"/>
                <mxCell id="1" parent="0"/>
                <mxCell id="4" value="User Interface" style="rounded=0;whiteSpace=wrap;html=1;fillColor=#60a917;fontColor=#ffffff;strokeColor=#2D7600;" parent="1" vertex="1">
                    <mxGeometry x="190" y="300" width="120" height="90" as="geometry"/>
                </mxCell>
                <mxCell id="12" style="edgeStyle=none;html=1;exitX=1;exitY=0.25;exitDx=0;exitDy=0;entryX=0;entryY=0.25;entryDx=0;entryDy=0;fillColor=#f0a30a;strokeColor=#BD7000;" parent="1" source="6" target="7" edge="1">
                    <mxGeometry relative="1" as="geometry"/>
                </mxCell>
                <mxCell id="6" value="Frontend&lt;br&gt;(HTML, CSS, JavaScript)" style="rounded=0;whiteSpace=wrap;html=1;fillColor=#d80073;strokeColor=#A50040;fontColor=#ffffff;" parent="1" vertex="1">
                    <mxGeometry x="460" y="210" width="120" height="90" as="geometry"/>
                </mxCell>
                <mxCell id="11" style="edgeStyle=none;html=1;exitX=0;exitY=0.75;exitDx=0;exitDy=0;entryX=1;entryY=0.75;entryDx=0;entryDy=0;fillColor=#e51400;strokeColor=#B20000;" parent="1" source="7" target="6" edge="1">
                    <mxGeometry relative="1" as="geometry"/>
                </mxCell>
                <mxCell id="7" value="Application Server (PHP/Apache)" style="rounded=0;whiteSpace=wrap;html=1;fillColor=#1ba1e2;fontColor=#ffffff;strokeColor=#006EAF;" parent="1" vertex="1">
                    <mxGeometry x="760" y="210" width="120" height="90" as="geometry"/>
                </mxCell>
                <mxCell id="8" value="Database Server&lt;br&gt;(MySQL)" style="rounded=0;whiteSpace=wrap;html=1;fillColor=#76608a;fontColor=#ffffff;strokeColor=#432D57;" parent="1" vertex="1">
                    <mxGeometry x="1010" y="300" width="120" height="90" as="geometry"/>
                </mxCell>
                <mxCell id="10" value="HTTP Request" style="text;html=1;strokeColor=#314354;fillColor=#647687;align=center;verticalAlign=middle;whiteSpace=wrap;rounded=0;fontColor=#ffffff;" parent="1" vertex="1">
                    <mxGeometry x="650" y="190" width="60" height="30" as="geometry"/>
                </mxCell>
                <mxCell id="13" value="HTTP&amp;nbsp;&lt;br&gt;Response" style="text;html=1;strokeColor=#314354;fillColor=#647687;align=center;verticalAlign=middle;whiteSpace=wrap;rounded=0;fontColor=#ffffff;" parent="1" vertex="1">
                    <mxGeometry x="650" y="290" width="60" height="30" as="geometry"/>
                </mxCell>
                <mxCell id="17" value="" style="edgeStyle=segmentEdgeStyle;endArrow=classic;html=1;curved=0;rounded=0;endSize=8;startSize=8;entryX=0.75;entryY=0;entryDx=0;entryDy=0;fillColor=#f0a30a;strokeColor=#BD7000;" parent="1" target="8" edge="1">
                    <mxGeometry width="50" height="50" relative="1" as="geometry">
                        <mxPoint x="880" y="240" as="sourcePoint"/>
                        <mxPoint x="1019.24" y="296.03999999999996" as="targetPoint"/>
                        <Array as="points">
                            <mxPoint x="880" y="240"/>
                            <mxPoint x="1100" y="240"/>
                        </Array>
                    </mxGeometry>
                </mxCell>
                <mxCell id="18" value="Data Query" style="text;html=1;strokeColor=#314354;fillColor=#647687;align=center;verticalAlign=middle;whiteSpace=wrap;rounded=0;fontColor=#ffffff;" parent="1" vertex="1">
                    <mxGeometry x="940" y="200" width="60" height="30" as="geometry"/>
                </mxCell>
                <mxCell id="20" value="" style="edgeStyle=segmentEdgeStyle;endArrow=classic;html=1;curved=0;rounded=0;endSize=8;startSize=8;exitX=0.25;exitY=0;exitDx=0;exitDy=0;entryX=1;entryY=0.75;entryDx=0;entryDy=0;fillColor=#e51400;strokeColor=#B20000;" parent="1" source="8" target="7" edge="1">
                    <mxGeometry width="50" height="50" relative="1" as="geometry">
                        <mxPoint x="1030" y="290" as="sourcePoint"/>
                        <mxPoint x="1080" y="240" as="targetPoint"/>
                        <Array as="points">
                            <mxPoint x="1040" y="278"/>
                        </Array>
                    </mxGeometry>
                </mxCell>
                <mxCell id="21" value="Data Query Result" style="text;html=1;strokeColor=#314354;fillColor=#647687;align=center;verticalAlign=middle;whiteSpace=wrap;rounded=0;fontColor=#ffffff;" parent="1" vertex="1">
                    <mxGeometry x="920" y="300" width="60" height="50" as="geometry"/>
                </mxCell>
                <mxCell id="22" value="" style="edgeStyle=segmentEdgeStyle;endArrow=classic;html=1;curved=0;rounded=0;endSize=8;startSize=8;exitX=0.25;exitY=0;exitDx=0;exitDy=0;entryX=0.017;entryY=0.378;entryDx=0;entryDy=0;entryPerimeter=0;fillColor=#f0a30a;strokeColor=#BD7000;" parent="1" source="4" target="6" edge="1">
                    <mxGeometry width="50" height="50" relative="1" as="geometry">
                        <mxPoint x="210" y="280" as="sourcePoint"/>
                        <mxPoint x="440" y="240" as="targetPoint"/>
                        <Array as="points">
                            <mxPoint x="220" y="244"/>
                        </Array>
                    </mxGeometry>
                </mxCell>
                <mxCell id="23" value="" style="edgeStyle=segmentEdgeStyle;endArrow=classic;html=1;curved=0;rounded=0;endSize=8;startSize=8;exitX=0;exitY=0.75;exitDx=0;exitDy=0;entryX=0.75;entryY=0;entryDx=0;entryDy=0;fillColor=#fa6800;strokeColor=#C73500;" parent="1" source="6" target="4" edge="1">
                    <mxGeometry width="50" height="50" relative="1" as="geometry">
                        <mxPoint x="375" y="320" as="sourcePoint"/>
                        <mxPoint x="425" y="270" as="targetPoint"/>
                        <Array as="points">
                            <mxPoint x="280" y="278"/>
                        </Array>
                    </mxGeometry>
                </mxCell>
                <mxCell id="24" value="User Interaction" style="text;html=1;strokeColor=#314354;fillColor=#647687;align=center;verticalAlign=middle;whiteSpace=wrap;rounded=0;fontColor=#ffffff;" parent="1" vertex="1">
                    <mxGeometry x="300" y="200" width="60" height="30" as="geometry"/>
                </mxCell>
                <mxCell id="25" value="Display Response" style="text;html=1;strokeColor=#314354;fillColor=#647687;align=center;verticalAlign=middle;whiteSpace=wrap;rounded=0;fontColor=#ffffff;" parent="1" vertex="1">
                    <mxGeometry x="360" y="300" width="60" height="30" as="geometry"/>
                </mxCell>
            </root>
        </mxGraphModel>
    </diagram>
</mxfile>